# xmcd
#
# Track frame offsets: 
#        150
#        10588
#        24188
#        40050
#        51563
#        64300
#        74588
#        86600
#        103000
#        119588
#        131538
#        144000
#        154500
#        162375
#        172488
#        184950
#        200300
#        212550
#        225063
#        233063
#        243213
#        256338
#        266913
#        280313
#        294213
#
# Disc length: 4056 seconds
#
# Revision: 0
# Processed by: cddbd v1.5.2PL0 Copyright (c) Steve Scherf et al.
# Submitted via: ExactAudioCopy v0.99pb5
#
DISCID=620fd619
DTITLE=Various Artist - Can't Stop Loving You 25 Country Classics
DYEAR=1994
DGENRE=Country
TTITLE0=Dave Dudley - Oh, Lonesome Me
TTITLE1=George Jones - Almost Persuaded
TTITLE2=Ernest Tubb - I Love You Because
TTITLE3=Roy Drusky - The Last Letter
TTITLE4=Johhny Paycheck - Close All The Honkey Tonks
TTITLE5=Johnny Russell - Busted
TTITLE6=Jerry Walace - There She Goes
TTITLE7=Mac Wiseman - 18 Wheels a Hummin'
TTITLE8=Jerry Lee Lewis - She Even Woke Me Up To Say Goodbye
TTITLE9=Webb Pierce - High Geared Daddy
TTITLE10=Hank Locklin - Queen Of Hearts
TTITLE11=Glen Campbell - Walk Right In
TTITLE12=Boxcar Willie - Tennessee Saturday Night
TTITLE13=Tennessee Ernie Ford - Half As Much
TTITLE14=Waylon Jennings - Don't Think Twice It's Alright
TTITLE15=Kenny Rogers - Just Dropped In
TTITLE16=Jimmie Rogers - Its My Time
TTITLE17=Ferlin Husky - I Can't Stop Loving You
TTITLE18=Roy Drusky - Hello Walls
TTITLE19=Willie Nelson - Broken Promises
TTITLE20=George Jones - Flowers For Mama
TTITLE21=Ferlin Husky - Six Days On The Road
TTITLE22=Johhny Paycheck - She's All I Got
TTITLE23=Don Williams - Ruby Tuesday
TTITLE24=Gene Vincent - Lonely Street
EXTD=
EXTT0=
EXTT1=
EXTT2=
EXTT3=
EXTT4=
EXTT5=
EXTT6=
EXTT7=
EXTT8=
EXTT9=
EXTT10=
EXTT11=
EXTT12=
EXTT13=
EXTT14=
EXTT15=
EXTT16=
EXTT17=
EXTT18=
EXTT19=
EXTT20=
EXTT21=
EXTT22=
EXTT23=
EXTT24=
PLAYORDER=
